<svg xmlns="http://www.w3.org/2000/svg" version="1.1" xmlns:xlink="http://www.w3.org/1999/xlink" xmlns:svgjs="http://svgjs.com/svgjs" width="512" height="512" x="0" y="0" viewBox="0 0 512.001 512.001" style="enable-background:new 0 0 512 512" xml:space="preserve" class=""><g><path d="m486.251 65.835-18.752-18.752c-34.333-34.333-89.997-34.333-124.33-.001l-.001.001-239.616 239.616a62.551 62.551 0 0 0-18.219 43.968v42.667c0 17.673 14.327 32 32 32H160a62.59 62.59 0 0 0 43.968-18.219l176.917-176.917c4.237-4.093 4.354-10.845.262-15.083-4.093-4.237-10.845-4.354-15.083-.262-.089.086-.176.173-.262.262L188.885 372.032A41.124 41.124 0 0 1 160 384h-42.667c-5.891 0-10.667-4.776-10.667-10.667v-42.667a41.108 41.108 0 0 1 11.968-28.885L358.251 62.166c26.366-25.112 67.8-25.112 94.165 0l18.752 18.752c25.993 26.007 25.993 68.158 0 94.165l-267.2 267.2a91.735 91.735 0 0 1-65.301 27.051H53.333c-17.673 0-32-14.327-32-32V352a92.966 92.966 0 0 1 27.051-65.301L252.885 82.198c4.237-4.093 4.355-10.845.262-15.083-4.093-4.237-10.845-4.355-15.083-.262-.089.086-.176.173-.262.262L33.301 271.616A114.458 114.458 0 0 0 0 352v85.333c0 29.455 23.878 53.333 53.333 53.333h85.333a113.07 113.07 0 0 0 80.384-33.301l267.2-267.2c34.334-34.332 34.334-89.996.001-124.33z" style="" fill="#cfd8dc" data-original="#cfd8dc"></path><path d="M138.667 490.667H53.333C23.878 490.667 0 466.789 0 437.334V352a114.457 114.457 0 0 1 33.301-80.384L237.803 67.115c4.093-4.237 10.845-4.355 15.083-.262s4.355 10.845.262 15.083c-.086.089-.173.176-.262.262L48.384 286.699A92.976 92.976 0 0 0 21.333 352v85.333c0 17.673 14.327 32 32 32h85.333a91.73 91.73 0 0 0 65.301-27.051l267.2-267.2c25.993-26.007 25.993-68.158 0-94.165l-18.752-18.752c-26.366-25.112-67.8-25.112-94.165 0L118.635 301.782a41.108 41.108 0 0 0-11.968 28.885v42.667c0 5.891 4.776 10.667 10.667 10.667H160a41.128 41.128 0 0 0 28.885-11.968l176.917-176.917c4.093-4.237 10.845-4.355 15.083-.262 4.237 4.093 4.354 10.845.262 15.083-.086.089-.173.176-.262.262L203.968 387.115A62.595 62.595 0 0 1 160 405.334h-42.667c-17.673 0-32-14.327-32-32v-42.667a62.547 62.547 0 0 1 18.219-43.968L343.168 47.083c34.333-34.333 89.997-34.333 124.33-.001l.001.001 18.752 18.752c34.333 34.333 34.333 89.997.001 124.33l-.001.001-267.2 267.2a113.067 113.067 0 0 1-80.384 33.301z" fill="#000000" data-original="#000000" class=""></path></g></svg>