<svg xmlns="http://www.w3.org/2000/svg" version="1.1" xmlns:xlink="http://www.w3.org/1999/xlink" xmlns:svgjs="http://svgjs.com/svgjs" width="512" height="512" x="0" y="0" viewBox="0 0 437.813 437.813" style="enable-background:new 0 0 512 512" xml:space="preserve" class=""><g><path d="M373.953 65.095C331.457 22.087 273.089-1.465 212.673.071 92.353 3.655-1.855 103.495 1.729 223.815c.512 25.088 5.632 49.664 14.848 72.704 7.68 19.456 17.92 37.376 30.72 53.76l-17.92 42.496c-7.168 16.384.512 35.328 16.896 42.496 5.632 2.56 12.288 3.072 18.432 2.048l82.944-14.336c29.696 10.24 60.928 13.824 92.16 10.752 107.008-10.752 190.464-98.304 196.096-205.824 3.072-60.928-19.456-119.808-61.952-162.816zM202.945 304.199h-56.832c-8.704 0-16.384-7.168-16.384-16.384 0-8.704 7.168-16.384 16.384-16.384h56.832c8.704 0 16.384 7.168 16.384 16.384 0 9.216-7.168 16.384-16.384 16.384zm88.576-66.56H146.113c-8.704 0-16.384-7.168-16.384-16.384s7.168-16.384 16.384-16.384h145.408c8.704 0 16.384 7.168 16.384 16.384s-7.68 16.384-16.384 16.384zm0-67.072H146.113c-8.704 0-16.384-7.168-16.384-16.384 0-8.704 7.168-16.384 16.384-16.384h145.408c8.704 0 16.384 7.168 16.384 16.384 0 8.704-7.68 16.384-16.384 16.384z" fill="#000000" data-original="#000000" class=""></path></g></svg>