<svg xmlns="http://www.w3.org/2000/svg" version="1.1" xmlns:xlink="http://www.w3.org/1999/xlink" xmlns:svgjs="http://svgjs.com/svgjs" width="512" height="512" x="0" y="0" viewBox="0 0 663 663" style="enable-background:new 0 0 512 512" xml:space="preserve" class=""><g><path d="M510 408c-45.135 0-84.558 23.588-107.202 58.956l-136.527-78.03c8.797-17.34 14.229-36.644 14.229-57.426 0-12.827-2.474-24.964-5.993-36.644l142.061-81.167C439.85 238.935 472.948 255 510 255c70.405 0 127.5-57.095 127.5-127.5S580.405 0 510 0 382.5 57.095 382.5 127.5c0 12.827 2.474 24.964 5.992 36.644l-142.06 81.192C223.15 220.065 190.051 204 153 204c-70.405 0-127.5 57.069-127.5 127.5C25.5 401.905 82.595 459 153 459c29.07 0 55.539-10.098 76.984-26.494l-.484.994 154.377 88.23c-.484 4.59-1.377 9.052-1.377 13.77 0 70.405 57.095 127.5 127.5 127.5s127.5-57.095 127.5-127.5S580.405 408 510 408zm0-357c42.254 0 76.5 34.247 76.5 76.5S552.254 204 510 204s-76.5-34.247-76.5-76.5S467.746 51 510 51zM153 408c-42.253 0-76.5-34.246-76.5-76.5 0-42.253 34.247-76.5 76.5-76.5s76.5 34.247 76.5 76.5c0 42.254-34.247 76.5-76.5 76.5zm357 204c-42.254 0-76.5-34.246-76.5-76.5S467.746 459 510 459s76.5 34.246 76.5 76.5S552.254 612 510 612z" fill="#000000" data-original="#000000" class=""></path></g></svg>