<svg xmlns="http://www.w3.org/2000/svg" version="1.1" xmlns:xlink="http://www.w3.org/1999/xlink" xmlns:svgjs="http://svgjs.com/svgjs" width="512" height="512" x="0" y="0" viewBox="0 0 295.996 295.996" style="enable-background:new 0 0 512 512" xml:space="preserve" class=""><g><path d="M147.998 0C66.392 0 0 66.392 0 147.998s66.392 147.998 147.998 147.998 147.998-66.392 147.998-147.998S229.605 0 147.998 0zm0 279.996c-36.256 0-69.143-14.696-93.022-38.44a132.713 132.713 0 0 1-23.934-32.42C21.442 190.847 16 170.047 16 147.998 16 75.214 75.214 16 147.998 16c34.523 0 65.987 13.328 89.533 35.102 12.208 11.288 22.289 24.844 29.558 39.996 8.27 17.239 12.907 36.538 12.907 56.9 0 72.784-59.214 131.998-131.998 131.998z" fill="#000000" data-original="#000000" class=""></path><path d="M237.994 147.997H58c0 49.704 40.293 89.998 89.998 89.998 49.703 0 89.996-40.294 89.996-89.998zm-17.997 16h.128c-7.332 33.139-36.88 57.998-72.19 57.998-35.312 0-64.861-24.859-72.192-57.998h144.254z" fill="#000000" data-original="#000000" class=""></path><circle cx="98.497" cy="107.998" r="16" fill="#000000" data-original="#000000" class=""></circle><circle cx="197.497" cy="107.998" r="16" fill="#000000" data-original="#000000" class=""></circle></g></svg>