<svg xmlns="http://www.w3.org/2000/svg" version="1.1" xmlns:xlink="http://www.w3.org/1999/xlink" xmlns:svgjs="http://svgjs.com/svgjs" width="512" height="512" x="0" y="0" viewBox="0 0 24 24" style="enable-background:new 0 0 512 512" xml:space="preserve" class=""><g><path fill="#000000" fill-rule="evenodd" d="M22 12c0 5.523-4.477 10-10 10S2 17.523 2 12 6.477 2 12 2s10 4.477 10 10zm-4.286 4.4a.854.854 0 0 1 0 1.2A7.976 7.976 0 0 1 12 20a7.976 7.976 0 0 1-5.714-2.4.854.854 0 0 1 0-1.2A7.976 7.976 0 0 1 12 14c2.238 0 4.262.92 5.714 2.4zM12 12a3 3 0 1 0 0-6 3 3 0 0 0 0 6z" clip-rule="evenodd" data-original="#000000" class=""></path></g></svg>